<mxfile host="65bd71144e">
    <diagram id="-w4vnpKV7Fy1OEsOwo8v" name="Seite-1">
        <mxGraphModel dx="921" dy="669" grid="1" gridSize="10" guides="1" tooltips="1" connect="1" arrows="1" fold="1" page="1" pageScale="1" pageWidth="827" pageHeight="1169" math="0" shadow="0">
            <root>
                <mxCell id="0"/>
                <mxCell id="1" parent="0"/>
                <mxCell id="3" value="SM-Ventilator" style="shape=umlFrame;whiteSpace=wrap;html=1;width=120;height=30;boundedLbl=1;verticalAlign=middle;align=left;spacingLeft=5;" vertex="1" parent="1">
                    <mxGeometry x="114" y="50" width="600" height="370" as="geometry"/>
                </mxCell>
                <mxCell id="2" value="" style="ellipse;fillColor=strokeColor;" vertex="1" parent="1">
                    <mxGeometry x="140" y="160" width="30" height="30" as="geometry"/>
                </mxCell>
                <mxCell id="4" value="" style="ellipse;html=1;shape=endState;fillColor=strokeColor;" vertex="1" parent="1">
                    <mxGeometry x="650" y="160" width="30" height="30" as="geometry"/>
                </mxCell>
                <mxCell id="5" value="Stufe 1" style="swimlane;fontStyle=1;align=center;verticalAlign=middle;childLayout=stackLayout;horizontal=1;startSize=30;horizontalStack=0;resizeParent=0;resizeLast=1;container=0;fontColor=#000000;collapsible=0;rounded=1;arcSize=30;strokeColor=#ff0000;fillColor=#ffffc0;swimlaneFillColor=#ffffc0;dropTarget=0;" vertex="1" parent="1">
                    <mxGeometry x="310" y="145" width="160" height="60" as="geometry"/>
                </mxCell>
                <mxCell id="6" value="&lt;b&gt;DO&lt;/b&gt; / langsames Drehen" style="text;html=1;strokeColor=none;fillColor=none;align=center;verticalAlign=middle;spacingLeft=4;spacingRight=4;whiteSpace=wrap;overflow=hidden;rotatable=0;fontColor=#000000;" vertex="1" parent="5">
                    <mxGeometry y="30" width="160" height="30" as="geometry"/>
                </mxCell>
                <mxCell id="8" style="edgeStyle=none;html=1;exitX=0.5;exitY=0;exitDx=0;exitDy=0;entryX=0.569;entryY=-0.033;entryDx=0;entryDy=0;entryPerimeter=0;" edge="1" parent="5" source="6" target="6">
                    <mxGeometry relative="1" as="geometry"/>
                </mxCell>
                <mxCell id="9" value="Stufe 2" style="swimlane;fontStyle=1;align=center;verticalAlign=middle;childLayout=stackLayout;horizontal=1;startSize=30;horizontalStack=0;resizeParent=0;resizeLast=1;container=0;fontColor=#000000;collapsible=0;rounded=1;arcSize=30;strokeColor=#ff0000;fillColor=#ffffc0;swimlaneFillColor=#ffffc0;dropTarget=0;" vertex="1" parent="1">
                    <mxGeometry x="310" y="320" width="160" height="60" as="geometry"/>
                </mxCell>
                <mxCell id="11" style="edgeStyle=none;html=1;exitX=0.5;exitY=0;exitDx=0;exitDy=0;entryX=0.569;entryY=-0.033;entryDx=0;entryDy=0;entryPerimeter=0;" edge="1" parent="9" source="10" target="10">
                    <mxGeometry relative="1" as="geometry"/>
                </mxCell>
                <mxCell id="16" style="edgeStyle=none;html=1;exitX=0.5;exitY=0;exitDx=0;exitDy=0;" edge="1" parent="9" source="10" target="9">
                    <mxGeometry relative="1" as="geometry"/>
                </mxCell>
                <mxCell id="10" value="&lt;b&gt;DO&lt;/b&gt;&amp;nbsp;/ schnelles Drehen" style="text;html=1;strokeColor=none;fillColor=none;align=center;verticalAlign=middle;spacingLeft=4;spacingRight=4;whiteSpace=wrap;overflow=hidden;rotatable=0;fontColor=#000000;" vertex="1" parent="9">
                    <mxGeometry y="30" width="160" height="30" as="geometry"/>
                </mxCell>
                <mxCell id="20" style="edgeStyle=none;html=1;exitX=0;exitY=0;exitDx=0;exitDy=0;entryX=1;entryY=0.5;entryDx=0;entryDy=0;strokeColor=#e7150d;startArrow=openThin;startFill=0;endArrow=none;endFill=0;" edge="1" parent="1" source="6" target="2">
                    <mxGeometry relative="1" as="geometry"/>
                </mxCell>
                <mxCell id="22" style="edgeStyle=none;html=1;exitX=0;exitY=0.5;exitDx=0;exitDy=0;entryX=1;entryY=0.5;entryDx=0;entryDy=0;strokeColor=#e7150d;startArrow=openThin;startFill=0;endArrow=none;endFill=0;" edge="1" parent="1" source="4">
                    <mxGeometry relative="1" as="geometry">
                        <mxPoint x="530" y="174.5" as="sourcePoint"/>
                        <mxPoint x="470" y="174.5" as="targetPoint"/>
                    </mxGeometry>
                </mxCell>
                <mxCell id="23" style="edgeStyle=none;html=1;exitX=0.25;exitY=0;exitDx=0;exitDy=0;entryX=0.25;entryY=1;entryDx=0;entryDy=0;strokeColor=#e7150d;startArrow=openThin;startFill=0;endArrow=none;endFill=0;" edge="1" parent="1" source="9" target="6">
                    <mxGeometry relative="1" as="geometry">
                        <mxPoint x="560" y="260.5" as="sourcePoint"/>
                        <mxPoint x="480" y="260" as="targetPoint"/>
                    </mxGeometry>
                </mxCell>
                <mxCell id="24" style="edgeStyle=none;html=1;exitX=0.75;exitY=1;exitDx=0;exitDy=0;entryX=0.75;entryY=0;entryDx=0;entryDy=0;strokeColor=#e7150d;startArrow=openThin;startFill=0;endArrow=none;endFill=0;" edge="1" parent="1" source="6" target="9">
                    <mxGeometry relative="1" as="geometry">
                        <mxPoint x="510" y="285" as="sourcePoint"/>
                        <mxPoint x="510" y="220" as="targetPoint"/>
                    </mxGeometry>
                </mxCell>
                <mxCell id="26" value="Stufe 1 gewählt /&lt;br&gt;Schalte 1()" style="text;html=1;align=center;" vertex="1" parent="1">
                    <mxGeometry x="180" y="130" width="110" height="50" as="geometry"/>
                </mxCell>
                <mxCell id="27" value="Stufe 2 gewählt /&lt;br&gt;Schalte 2()" style="text;html=1;align=center;" vertex="1" parent="1">
                    <mxGeometry x="240" y="250" width="110" height="50" as="geometry"/>
                </mxCell>
                <mxCell id="28" value="Stufe 1 gewählt /&lt;br&gt;Schalte 1()" style="text;html=1;align=center;" vertex="1" parent="1">
                    <mxGeometry x="440" y="250" width="110" height="50" as="geometry"/>
                </mxCell>
                <mxCell id="29" value="ausschalten /&lt;br&gt;Schalte 0()" style="text;html=1;align=center;" vertex="1" parent="1">
                    <mxGeometry x="500" y="130" width="110" height="50" as="geometry"/>
                </mxCell>
                <mxCell id="30" value="Zustandsdiagramm - State Machine" style="text;html=1;align=center;verticalAlign=middle;resizable=0;points=[];autosize=1;strokeColor=none;fillColor=none;" vertex="1" parent="1">
                    <mxGeometry x="105" y="5" width="210" height="30" as="geometry"/>
                </mxCell>
            </root>
        </mxGraphModel>
    </diagram>
</mxfile>